<?xml version="1.0" standalone="no"?>
<!DOCTYPE svg PUBLIC "-//W3C//DTD SVG 20010904//EN"
 "http://www.w3.org/TR/2001/REC-SVG-20010904/DTD/svg10.dtd">
<svg version="1.0" xmlns="http://www.w3.org/2000/svg"
 width="396.000000pt" height="210.000000pt" viewBox="0 0 396.000000 210.000000"
 preserveAspectRatio="xMidYMid meet">
<metadata>
Created by potrace 1.16, written by Peter Selinger 2001-2019
</metadata>
<g transform="translate(0.000000,210.000000) scale(0.100000,-0.100000)"
fill="#000000" stroke="none">
<path d="M1889 2077 c-24 -13 -57 -43 -74 -66 -26 -37 -30 -51 -30 -110 l0
-66 -320 -125 -320 -125 -30 39 c-41 53 -87 76 -155 76 -68 0 -114 -23 -157
-78 -42 -55 -52 -120 -29 -183 9 -26 16 -49 16 -52 0 -5 -152 -126 -176 -140
-6 -3 -26 5 -46 18 -19 13 -53 28 -76 34 -113 31 -241 -71 -242 -193 0 -49 32
-118 71 -150 l30 -25 -36 -71 c-32 -64 -38 -70 -58 -63 -40 14 -111 8 -152
-13 -23 -12 -54 -41 -72 -68 -28 -40 -33 -58 -33 -104 0 -101 65 -184 155
-199 20 -3 36 -12 38 -22 4 -15 5 -15 6 0 1 11 14 18 37 22 87 14 160 105 158
198 0 51 -38 127 -76 153 l-22 16 34 70 c33 69 35 71 65 63 38 -9 72 -9 110 0
30 8 32 6 65 -62 l33 -70 -30 -28 c-50 -47 -66 -88 -61 -157 6 -95 69 -169
154 -183 19 -3 35 -12 37 -22 4 -15 5 -15 6 0 1 11 13 18 35 22 54 9 113 54
138 106 79 161 -80 339 -247 275 -20 -8 -92 136 -73 147 26 16 34 25 58 59 21
29 25 47 25 107 0 44 -5 77 -12 84 -7 7 -13 18 -13 24 0 13 169 148 185 148 6
0 30 -13 54 -29 64 -42 139 -41 209 3 l51 31 94 -74 95 -74 -19 -37 c-36 -71
-13 -172 52 -227 l30 -25 -36 -71 c-32 -64 -38 -70 -58 -63 -79 29 -187 -15
-233 -93 -65 -111 6 -271 132 -291 19 -3 35 -12 37 -22 4 -15 5 -15 6 0 1 11
13 18 35 22 74 12 143 83 160 163 11 51 -12 118 -56 166 l-39 43 32 68 c32 66
34 67 64 60 16 -4 41 -7 55 -7 14 0 39 3 55 7 30 8 32 6 65 -62 l33 -70 -30
-28 c-50 -47 -66 -88 -61 -157 6 -95 69 -169 154 -183 19 -3 35 -12 37 -22 4
-14 5 -14 6 2 1 10 9 17 23 17 67 0 147 72 169 154 39 144 -122 285 -263 231
-23 -9 -98 133 -76 146 26 16 34 25 58 59 21 29 25 47 25 105 0 79 -23 125
-80 163 -77 50 -163 48 -233 -4 -37 -29 -31 -31 -139 54 -84 66 -93 78 -71
100 8 8 13 40 13 83 l0 69 170 67 c94 36 237 92 320 125 l149 59 18 -23 c10
-13 18 -26 18 -30 0 -15 89 -58 133 -64 61 -9 146 30 177 81 12 19 23 35 25
35 2 0 146 -56 321 -124 l318 -124 1 -64 c0 -43 6 -73 18 -91 l17 -27 -96 -76
-95 -76 -37 25 c-96 63 -183 57 -258 -18 -83 -83 -84 -192 -4 -276 l39 -41
-35 -70 c-31 -62 -37 -68 -57 -61 -80 29 -192 -17 -235 -97 -61 -114 10 -267
134 -287 19 -3 35 -12 37 -22 4 -14 5 -14 6 2 1 10 9 17 23 17 38 0 108 41
134 79 59 86 52 180 -18 254 l-40 42 33 68 c32 66 34 67 64 60 37 -9 82 -9
115 0 23 7 28 2 62 -63 l37 -70 -29 -20 c-15 -11 -38 -41 -50 -66 -56 -115 15
-261 136 -281 19 -3 35 -12 37 -22 4 -14 5 -14 6 2 1 10 9 17 23 17 72 0 159
85 173 170 24 140 -134 266 -267 215 -23 -9 -98 133 -76 146 26 16 34 25 58
59 21 29 25 47 25 107 0 44 -5 77 -12 84 -7 7 -13 18 -13 25 0 6 42 44 94 83
l94 72 47 -33 c39 -28 55 -33 104 -33 48 0 67 6 110 32 l51 32 95 -75 c91 -72
94 -76 80 -97 -41 -63 -26 -164 35 -228 l39 -41 -35 -70 c-31 -62 -37 -68 -57
-61 -80 29 -192 -17 -235 -97 -61 -114 10 -267 134 -287 19 -3 35 -12 37 -22
4 -14 5 -14 6 2 1 10 9 17 23 17 43 0 109 42 138 87 55 87 47 174 -23 247
l-39 41 33 68 c32 66 34 67 64 60 37 -9 82 -9 115 0 23 7 28 2 62 -62 l38 -70
-29 -20 c-16 -12 -39 -42 -51 -67 -56 -115 15 -261 136 -281 19 -3 35 -12 37
-22 4 -14 5 -14 6 2 1 10 9 17 23 17 44 0 109 42 140 89 27 42 29 52 26 117
-3 59 -8 77 -30 106 -54 70 -137 99 -219 76 -25 -7 -29 -3 -64 63 -30 58 -35
73 -24 80 27 16 35 24 59 59 36 50 36 159 1 211 -28 41 -69 70 -124 88 -48 16
-117 1 -165 -35 -37 -29 -29 -32 -139 55 -84 65 -93 77 -70 99 7 8 12 41 12
85 0 59 -5 78 -24 108 -35 51 -87 82 -147 87 -71 6 -120 -13 -171 -66 l-44
-45 -316 124 -316 124 -1 67 c-1 57 -5 72 -31 109 -38 54 -103 89 -165 89 -30
0 -63 -8 -91 -23z m169 -13 c97 -48 135 -163 83 -247 -57 -93 -160 -123 -245
-73 -139 81 -121 277 30 331 55 20 73 18 132 -11z m-1000 -409 c66 -43 102
-130 81 -194 -53 -162 -251 -188 -336 -44 -34 58 -35 114 -3 171 23 40 76 84
116 95 37 11 104 -3 142 -28z m2042 -1 c55 -36 95 -117 85 -173 -14 -83 -103
-161 -185 -161 -55 0 -119 37 -152 89 -25 40 -29 53 -26 101 6 82 54 144 133
172 35 12 104 -1 145 -28z m-2556 -393 c20 -13 48 -43 63 -68 36 -62 35 -118
-3 -179 -76 -124 -237 -122 -311 3 -36 62 -35 118 3 179 56 91 161 118 248 65z
m1020 0 c20 -13 48 -43 63 -68 36 -62 35 -118 -3 -179 -58 -94 -162 -119 -250
-61 -126 84 -106 266 38 327 36 15 112 6 152 -19z m1025 -4 c51 -34 96 -122
87 -170 -11 -58 -59 -122 -111 -147 -152 -74 -317 103 -233 251 21 37 42 56
98 86 37 21 112 11 159 -20z m1020 0 c88 -59 113 -167 56 -248 -42 -59 -106
-92 -167 -85 -93 10 -168 91 -168 181 0 75 63 158 136 178 39 11 105 -1 143
-26z m-3318 -497 c81 -53 109 -151 67 -230 -75 -140 -251 -140 -326 0 -29 55
-25 123 10 173 23 33 30 40 82 70 42 25 119 19 167 -13z m510 0 c81 -53 109
-151 67 -230 -75 -140 -251 -140 -326 0 -29 55 -25 123 10 173 23 33 30 40 82
70 42 25 119 19 167 -13z m510 0 c81 -53 109 -151 67 -230 -75 -140 -251 -140
-326 0 -29 55 -25 123 10 173 23 33 30 40 82 70 42 25 119 19 167 -13z m510 0
c59 -39 84 -85 84 -155 0 -51 -5 -66 -29 -97 -66 -88 -167 -109 -247 -53 -60
42 -92 106 -85 168 5 46 34 101 65 122 78 53 146 58 212 15z m510 0 c48 -32
82 -86 86 -140 6 -59 -28 -124 -86 -165 -82 -58 -195 -31 -252 62 -44 72 -25
184 40 228 78 53 146 58 212 15z m510 0 c59 -39 84 -85 84 -157 0 -54 -4 -66
-31 -99 -45 -57 -108 -87 -164 -80 -56 8 -111 44 -141 93 -44 72 -25 184 40
228 78 53 146 58 212 15z m511 0 c59 -39 83 -86 83 -157 0 -54 -4 -66 -31 -99
-45 -57 -108 -87 -164 -80 -83 11 -150 76 -165 159 -13 70 33 150 110 192 42
22 124 15 167 -15z m511 0 c78 -53 109 -157 69 -230 -24 -44 -92 -97 -136
-105 -112 -22 -233 99 -211 211 8 44 61 112 105 136 47 26 126 20 173 -12z"/>
<path d="M1949 1996 c-21 -46 7 -95 46 -80 38 15 25 104 -15 104 -12 0 -25
-10 -31 -24z m41 -31 c0 -19 -4 -35 -10 -35 -5 0 -10 16 -10 35 0 19 5 35 10
35 6 0 10 -16 10 -35z"/>
<path d="M1920 1831 c0 -33 16 -49 33 -32 6 6 19 11 29 11 10 0 18 5 18 10 0
6 -6 10 -14 10 -8 0 -16 7 -20 15 -3 8 -15 15 -26 15 -15 0 -20 -7 -20 -29z
m27 -13 c-3 -7 -5 -2 -5 12 0 14 2 19 5 13 2 -7 2 -19 0 -25z"/>
<path d="M2000 1850 c0 -5 7 -7 16 -3 14 5 15 3 5 -15 -13 -24 -14 -42 -3 -42
4 0 12 16 18 35 10 33 10 35 -12 35 -13 0 -24 -4 -24 -10z"/>
<path d="M905 1609 c-11 -4 -14 -8 -7 -8 7 -1 12 -15 12 -35 0 -19 -6 -37 -12
-39 -7 -3 3 -6 22 -6 19 0 30 3 23 7 -6 4 -13 26 -15 48 -3 37 -5 40 -23 33z"/>
<path d="M975 1610 c-10 -16 5 -50 21 -50 8 0 14 -7 14 -15 0 -8 -4 -15 -10
-15 -5 0 -10 5 -10 10 0 6 -7 10 -15 10 -21 0 -19 -17 5 -30 14 -8 26 -8 40 0
17 9 20 17 14 48 -4 20 -9 40 -11 45 -6 11 -41 9 -48 -3z m35 -14 c0 -3 -4 -8
-10 -11 -5 -3 -10 -1 -10 4 0 6 5 11 10 11 6 0 10 -2 10 -4z"/>
<path d="M890 1431 c0 -37 16 -48 39 -27 23 21 41 20 56 -1 10 -14 16 -15 28
-5 20 17 10 62 -14 62 -23 0 -24 -8 -2 -34 10 -12 11 -15 3 -8 -8 6 -24 12
-36 12 -12 0 -24 7 -28 15 -3 8 -15 15 -26 15 -15 0 -20 -7 -20 -29z m27 -13
c-3 -7 -5 -2 -5 12 0 14 2 19 5 13 2 -7 2 -19 0 -25z"/>
<path d="M2969 1596 c-21 -46 7 -95 46 -80 38 15 25 104 -15 104 -12 0 -25
-10 -31 -24z m41 -31 c0 -19 -4 -35 -10 -35 -5 0 -10 16 -10 35 0 19 5 35 10
35 6 0 10 -16 10 -35z"/>
<path d="M2940 1440 c-6 -11 -8 -25 -5 -30 8 -13 45 -13 45 0 0 6 11 10 25 10
16 0 25 -6 25 -15 0 -27 15 -16 26 20 10 33 10 35 -12 35 -13 0 -24 -4 -24
-10 0 -5 7 -7 15 -4 10 4 13 2 10 -7 -3 -8 -20 -14 -40 -14 -27 0 -35 4 -35
18 0 23 -17 22 -30 -3z"/>
<path d="M419 1196 c-21 -46 7 -95 46 -80 38 15 25 104 -15 104 -12 0 -25 -10
-31 -24z m41 -31 c0 -19 -4 -35 -10 -35 -5 0 -10 16 -10 35 0 19 5 35 10 35 6
0 10 -16 10 -35z"/>
<path d="M380 1031 c0 -37 16 -48 38 -28 9 8 28 17 42 20 l25 4 -26 2 c-15 0
-29 8 -33 16 -3 8 -15 15 -26 15 -15 0 -20 -7 -20 -29z m27 -13 c-3 -7 -5 -2
-5 12 0 14 2 19 5 13 2 -7 2 -19 0 -25z"/>
<path d="M479 1051 c8 -5 12 -18 8 -30 -3 -13 0 -21 7 -21 8 0 11 11 8 30 -3
19 -10 30 -21 30 -13 0 -13 -2 -2 -9z"/>
<path d="M1439 1196 c-21 -46 7 -95 46 -80 38 15 25 104 -15 104 -12 0 -25
-10 -31 -24z m41 -31 c0 -19 -4 -35 -10 -35 -5 0 -10 16 -10 35 0 19 5 35 10
35 6 0 10 -16 10 -35z"/>
<path d="M1400 1044 c0 -14 3 -14 15 -4 20 17 19 1 -2 -22 -15 -17 -15 -18 4
-18 14 0 22 8 25 25 6 29 2 35 -24 35 -10 0 -18 -7 -18 -16z"/>
<path d="M1490 1053 c0 -3 8 -16 17 -27 10 -12 11 -15 3 -8 -8 6 -25 11 -39
11 -21 -1 -22 -2 -6 -6 11 -3 25 -13 31 -21 10 -13 15 -14 27 -4 20 17 10 62
-14 62 -11 0 -19 -3 -19 -7z"/>
<path d="M2425 1210 c-10 -16 4 -50 21 -50 8 0 14 -7 14 -15 0 -8 -4 -15 -10
-15 -5 0 -10 5 -10 10 0 6 -7 10 -15 10 -8 0 -15 -4 -15 -10 0 -14 39 -32 52
-24 7 4 31 7 54 5 30 -1 43 3 48 14 5 13 1 15 -15 10 -21 -7 -21 -7 1 15 23
23 23 38 -3 54 -12 8 -22 8 -34 0 -23 -14 -28 -34 -9 -34 9 0 16 5 16 10 0 6
5 10 10 10 18 0 10 -26 -14 -49 l-24 -23 -9 43 c-7 34 -14 45 -30 47 -12 2
-24 -2 -28 -8z m35 -14 c0 -3 -4 -8 -10 -11 -5 -3 -10 -1 -10 4 0 6 5 11 10
11 6 0 10 -2 10 -4z"/>
<path d="M2430 1040 c-6 -11 -8 -25 -5 -30 8 -13 45 -13 45 0 0 16 32 11 46
-7 12 -17 14 -17 29 -2 15 15 15 18 1 32 -12 11 -13 17 -3 20 7 3 5 6 -5 6
-10 1 -18 -5 -18 -13 0 -8 -13 -16 -30 -18 -24 -4 -30 -1 -30 14 0 24 -17 23
-30 -2z"/>
<path d="M3479 1196 c-21 -46 7 -95 46 -80 38 15 25 104 -15 104 -12 0 -25
-10 -31 -24z m41 -31 c0 -19 -4 -35 -10 -35 -5 0 -10 16 -10 35 0 19 5 35 10
35 6 0 10 -16 10 -35z"/>
<path d="M3447 1053 c-11 -10 -8 -51 4 -58 5 -4 18 0 28 9 22 20 61 21 61 1 0
-27 15 -16 26 20 10 33 10 35 -12 35 -13 0 -24 -4 -24 -10 0 -5 7 -7 15 -4 10
4 13 2 10 -8 -7 -19 -75 -11 -75 8 0 14 -22 19 -33 7z"/>
<path d="M159 696 c-21 -46 7 -95 46 -80 38 15 25 104 -15 104 -12 0 -25 -10
-31 -24z m41 -31 c0 -19 -4 -35 -10 -35 -5 0 -10 16 -10 35 0 19 5 35 10 35 6
0 10 -16 10 -35z"/>
<path d="M170 531 c0 -35 15 -48 36 -30 22 18 14 53 -13 57 -20 3 -23 -1 -23
-27z m27 -13 c-3 -7 -5 -2 -5 12 0 14 2 19 5 13 2 -7 2 -19 0 -25z"/>
<path d="M669 696 c-21 -46 7 -95 46 -80 38 15 25 104 -15 104 -12 0 -25 -10
-31 -24z m41 -31 c0 -19 -4 -35 -10 -35 -5 0 -10 16 -10 35 0 19 5 35 10 35 6
0 10 -16 10 -35z"/>
<path d="M689 551 c8 -5 12 -18 8 -30 -3 -13 0 -21 7 -21 8 0 11 11 8 30 -3
19 -10 30 -21 30 -13 0 -13 -2 -2 -9z"/>
<path d="M1189 696 c-21 -46 7 -95 46 -80 38 15 25 104 -15 104 -12 0 -25 -10
-31 -24z m41 -31 c0 -19 -4 -35 -10 -35 -5 0 -10 16 -10 35 0 19 5 35 10 35 6
0 10 -16 10 -35z"/>
<path d="M1190 544 c0 -14 3 -14 15 -4 20 17 19 1 -2 -22 -15 -17 -15 -18 4
-18 14 0 22 8 25 25 6 29 2 35 -24 35 -10 0 -18 -7 -18 -16z"/>
<path d="M1675 709 c-11 -4 -14 -8 -7 -8 7 -1 12 -15 12 -35 0 -19 -6 -37 -12
-39 -7 -3 3 -6 22 -6 19 0 30 3 23 7 -6 4 -13 26 -15 48 -3 37 -5 40 -23 33z"/>
<path d="M1742 707 c-12 -15 -5 -84 10 -93 15 -10 58 25 58 47 0 49 -42 77
-68 46z m38 -27 c0 -11 -4 -20 -10 -20 -5 0 -10 9 -10 20 0 11 5 20 10 20 6 0
10 -9 10 -20z m0 -40 c0 -5 -4 -10 -10 -10 -5 0 -10 5 -10 10 0 6 5 10 10 10
6 0 10 -4 10 -10z"/>
<path d="M1700 553 c0 -3 8 -15 17 -25 16 -18 16 -18 0 -12 -18 7 -24 -11 -7
-21 18 -11 38 14 32 40 -3 16 -11 25 -23 25 -11 0 -19 -3 -19 -7z"/>
<path d="M2209 696 c-21 -46 7 -95 46 -80 38 15 25 104 -15 104 -12 0 -25 -10
-31 -24z m41 -31 c0 -19 -4 -35 -10 -35 -5 0 -10 16 -10 35 0 19 5 35 10 35 6
0 10 -16 10 -35z"/>
<path d="M2220 540 c-13 -25 -5 -40 22 -40 14 0 18 5 14 16 -3 9 -6 22 -6 30
0 21 -18 17 -30 -6z"/>
<path d="M2719 696 c-21 -46 7 -95 46 -80 38 15 25 104 -15 104 -12 0 -25 -10
-31 -24z m41 -31 c0 -19 -4 -35 -10 -35 -5 0 -10 16 -10 35 0 19 5 35 10 35 6
0 10 -16 10 -35z"/>
<path d="M2727 533 c-7 -36 8 -52 29 -31 14 14 14 17 0 31 -12 11 -13 17 -3
20 7 4 6 6 -4 6 -10 1 -19 -9 -22 -26z"/>
<path d="M3195 710 c-10 -16 4 -50 21 -50 8 0 14 -7 14 -15 0 -8 -4 -15 -10
-15 -5 0 -10 5 -10 10 0 6 -7 10 -15 10 -8 0 -15 -4 -15 -10 0 -14 39 -32 52
-24 7 4 31 7 54 5 30 -1 43 3 48 14 5 13 1 15 -15 10 -21 -7 -21 -7 1 15 23
23 23 38 -3 54 -12 8 -22 8 -34 0 -23 -14 -28 -34 -9 -34 9 0 16 5 16 10 0 6
5 10 10 10 18 0 10 -26 -14 -49 l-24 -23 -9 43 c-7 34 -14 45 -30 47 -12 2
-24 -2 -28 -8z m35 -14 c0 -3 -4 -8 -10 -11 -5 -3 -10 -1 -10 4 0 6 5 11 10
11 6 0 10 -2 10 -4z"/>
<path d="M3237 553 c-11 -10 -8 -51 4 -59 17 -10 39 19 33 44 -6 21 -24 29
-37 15z"/>
<path d="M3739 696 c-21 -46 7 -95 46 -80 38 15 25 104 -15 104 -12 0 -25 -10
-31 -24z m41 -31 c0 -19 -4 -35 -10 -35 -5 0 -10 16 -10 35 0 19 5 35 10 35 6
0 10 -16 10 -35z"/>
<path d="M3740 550 c0 -5 7 -7 16 -3 14 5 15 3 5 -15 -13 -24 -14 -42 -3 -42
4 0 12 16 18 35 10 33 10 35 -12 35 -13 0 -24 -4 -24 -10z"/>
<path d="M192 340 c0 -14 2 -19 5 -12 2 6 2 18 0 25 -3 6 -5 1 -5 -13z"/>
<path d="M702 340 c0 -14 2 -19 5 -12 2 6 2 18 0 25 -3 6 -5 1 -5 -13z"/>
<path d="M1212 340 c0 -14 2 -19 5 -12 2 6 2 18 0 25 -3 6 -5 1 -5 -13z"/>
<path d="M1722 340 c0 -14 2 -19 5 -12 2 6 2 18 0 25 -3 6 -5 1 -5 -13z"/>
<path d="M2232 340 c0 -14 2 -19 5 -12 2 6 2 18 0 25 -3 6 -5 1 -5 -13z"/>
<path d="M2742 340 c0 -14 2 -19 5 -12 2 6 2 18 0 25 -3 6 -5 1 -5 -13z"/>
<path d="M3252 340 c0 -14 2 -19 5 -12 2 6 2 18 0 25 -3 6 -5 1 -5 -13z"/>
<path d="M3762 340 c0 -14 2 -19 5 -12 2 6 2 18 0 25 -3 6 -5 1 -5 -13z"/>
<path d="M192 280 c0 -14 2 -19 5 -12 2 6 2 18 0 25 -3 6 -5 1 -5 -13z"/>
<path d="M702 280 c0 -14 2 -19 5 -12 2 6 2 18 0 25 -3 6 -5 1 -5 -13z"/>
<path d="M1212 280 c0 -14 2 -19 5 -12 2 6 2 18 0 25 -3 6 -5 1 -5 -13z"/>
<path d="M1722 280 c0 -14 2 -19 5 -12 2 6 2 18 0 25 -3 6 -5 1 -5 -13z"/>
<path d="M2232 280 c0 -14 2 -19 5 -12 2 6 2 18 0 25 -3 6 -5 1 -5 -13z"/>
<path d="M2742 280 c0 -14 2 -19 5 -12 2 6 2 18 0 25 -3 6 -5 1 -5 -13z"/>
<path d="M3252 280 c0 -14 2 -19 5 -12 2 6 2 18 0 25 -3 6 -5 1 -5 -13z"/>
<path d="M3762 280 c0 -14 2 -19 5 -12 2 6 2 18 0 25 -3 6 -5 1 -5 -13z"/>
<path d="M191 224 c0 -11 3 -14 6 -6 3 7 2 16 -1 19 -3 4 -6 -2 -5 -13z"/>
<path d="M701 224 c0 -11 3 -14 6 -6 3 7 2 16 -1 19 -3 4 -6 -2 -5 -13z"/>
<path d="M1211 224 c0 -11 3 -14 6 -6 3 7 2 16 -1 19 -3 4 -6 -2 -5 -13z"/>
<path d="M1721 224 c0 -11 3 -14 6 -6 3 7 2 16 -1 19 -3 4 -6 -2 -5 -13z"/>
<path d="M2231 224 c0 -11 3 -14 6 -6 3 7 2 16 -1 19 -3 4 -6 -2 -5 -13z"/>
<path d="M2741 224 c0 -11 3 -14 6 -6 3 7 2 16 -1 19 -3 4 -6 -2 -5 -13z"/>
<path d="M3251 224 c0 -11 3 -14 6 -6 3 7 2 16 -1 19 -3 4 -6 -2 -5 -13z"/>
<path d="M3761 224 c0 -11 3 -14 6 -6 3 7 2 16 -1 19 -3 4 -6 -2 -5 -13z"/>
<path d="M164 118 c1 -28 6 -34 30 -40 42 -9 55 -1 54 34 -1 31 -22 48 -39 31
-7 -7 -5 -16 5 -26 21 -20 20 -22 -9 -23 -21 -2 -25 2 -25 27 0 16 -4 29 -9
29 -5 0 -8 -15 -7 -32z"/>
<path d="M674 118 c1 -28 6 -34 30 -40 42 -9 55 -1 54 34 -1 31 -22 48 -39 31
-7 -7 -5 -16 5 -26 21 -20 20 -22 -9 -23 -21 -2 -25 2 -25 27 0 16 -4 29 -9
29 -5 0 -8 -15 -7 -32z"/>
<path d="M1184 118 c1 -28 6 -34 30 -40 42 -9 55 -1 54 34 -1 31 -22 48 -39
31 -7 -7 -5 -16 5 -26 21 -20 20 -22 -9 -23 -21 -2 -25 2 -25 27 0 16 -4 29
-9 29 -5 0 -8 -15 -7 -32z"/>
<path d="M1685 139 c-3 -4 2 -14 10 -22 20 -20 19 -28 -1 -20 -12 4 -15 2 -12
-8 3 -8 10 -14 16 -13 7 1 28 2 47 3 19 0 35 6 35 12 0 5 -6 7 -12 3 -9 -6 -9
-3 1 9 22 27 7 44 -38 44 -23 0 -44 -3 -46 -8z m63 -36 c-14 -13 -16 -13 -21
1 -4 10 -1 16 8 16 8 0 15 6 16 13 0 9 2 8 6 -1 3 -8 -1 -21 -9 -29z"/>
<path d="M2195 139 c-3 -4 2 -14 10 -22 20 -20 19 -28 -1 -20 -12 4 -15 2 -12
-8 3 -8 10 -14 16 -13 7 1 28 2 47 3 19 0 35 6 35 12 0 5 -6 7 -12 3 -9 -6 -9
-3 1 9 22 27 7 44 -38 44 -23 0 -44 -3 -46 -8z m63 -36 c-14 -13 -16 -13 -21
1 -4 10 -1 16 8 16 8 0 15 6 16 13 0 9 2 8 6 -1 3 -8 -1 -21 -9 -29z"/>
<path d="M2705 139 c-3 -4 2 -14 10 -22 20 -20 19 -28 -1 -20 -12 4 -15 2 -12
-8 3 -8 10 -14 16 -13 7 1 28 2 47 3 19 0 35 6 35 12 0 5 -6 7 -12 3 -9 -6 -9
-3 1 9 22 27 7 44 -38 44 -23 0 -44 -3 -46 -8z m63 -36 c-14 -13 -16 -13 -21
1 -4 10 -1 16 8 16 8 0 15 6 16 13 0 9 2 8 6 -1 3 -8 -1 -21 -9 -29z"/>
<path d="M3215 139 c-3 -4 2 -14 10 -22 20 -20 19 -28 -1 -20 -12 4 -15 2 -12
-8 3 -8 10 -14 16 -13 7 1 28 2 47 3 19 0 35 6 35 12 0 5 -6 7 -12 3 -9 -6 -9
-3 1 9 22 27 7 44 -38 44 -23 0 -44 -3 -46 -8z m63 -36 c-14 -13 -16 -13 -21
1 -4 10 -1 16 8 16 8 0 15 6 16 13 0 9 2 8 6 -1 3 -8 -1 -21 -9 -29z"/>
<path d="M3747 144 c-12 -13 -8 -62 6 -67 23 -9 39 9 35 39 -3 27 -26 43 -41
28z m20 -51 c-3 -10 -5 -2 -5 17 0 19 2 27 5 18 2 -10 2 -26 0 -35z"/>
</g>
</svg>
