<?xml version="1.0" standalone="no"?>
<!DOCTYPE svg PUBLIC "-//W3C//DTD SVG 20010904//EN"
 "http://www.w3.org/TR/2001/REC-SVG-20010904/DTD/svg10.dtd">
<svg version="1.0" xmlns="http://www.w3.org/2000/svg"
 width="396.000000pt" height="209.000000pt" viewBox="0 0 396.000000 209.000000"
 preserveAspectRatio="xMidYMid meet">
<metadata>
Created by potrace 1.16, written by Peter Selinger 2001-2019
</metadata>
<g transform="translate(0.000000,209.000000) scale(0.100000,-0.100000)"
fill="#000000" stroke="none">
<path d="M1895 2075 c-75 -41 -109 -97 -110 -184 l-1 -64 -319 -125 c-301
-117 -320 -123 -332 -105 -49 69 -99 97 -173 97 -116 1 -210 -102 -197 -216 4
-28 13 -61 21 -73 15 -22 12 -25 -81 -98 l-95 -75 -51 32 c-200 124 -413 -138
-246 -305 l39 -39 -35 -70 c-33 -66 -36 -69 -61 -60 -70 27 -162 -4 -218 -74
-29 -35 -31 -44 -31 -114 0 -65 4 -83 24 -113 30 -43 77 -75 124 -84 21 -4 38
-14 40 -24 4 -15 5 -15 6 0 1 11 14 19 37 24 74 13 131 71 154 153 16 62 -3
126 -54 176 l-42 41 35 65 34 65 87 0 87 0 36 -66 35 -65 -32 -26 c-18 -15
-40 -42 -49 -61 -22 -45 -22 -129 -1 -173 22 -46 79 -92 131 -106 23 -7 44
-19 46 -27 4 -14 5 -13 6 1 1 11 14 18 43 23 58 10 130 83 146 148 37 144
-117 289 -251 238 -24 -9 -27 -6 -61 59 l-37 69 39 39 c22 22 45 57 52 77 15
45 7 126 -14 156 -14 21 -11 25 80 95 52 41 97 74 100 74 3 0 22 -12 41 -27
32 -25 45 -28 113 -28 68 0 81 3 113 28 19 15 39 27 42 27 4 0 49 -33 100 -74
88 -70 93 -75 79 -94 -21 -30 -28 -101 -15 -150 8 -27 27 -58 52 -83 l39 -39
-35 -70 c-33 -66 -36 -69 -61 -60 -104 40 -241 -46 -252 -159 -2 -27 -1 -66 2
-86 10 -51 82 -121 140 -137 25 -7 47 -19 49 -27 4 -14 5 -14 6 0 1 11 14 19
37 24 72 13 126 66 153 148 19 57 -1 128 -51 180 l-40 42 32 65 31 65 89 0 88
0 36 -65 35 -66 -33 -26 c-18 -15 -40 -42 -49 -61 -22 -45 -22 -129 -1 -173
22 -46 90 -101 136 -109 22 -4 39 -14 41 -24 4 -15 5 -15 6 0 1 11 14 19 37
24 73 13 129 69 155 154 14 47 3 100 -34 157 -40 63 -152 101 -219 75 -22 -8
-27 -3 -61 60 l-38 68 39 39 c100 100 74 256 -55 318 -66 33 -125 28 -194 -15
l-46 -28 -95 74 -95 74 19 37 c13 26 18 53 16 91 l-3 54 317 124 318 125 48
-50 c78 -80 164 -90 259 -28 17 11 39 33 48 48 9 16 19 28 23 28 4 0 149 -55
322 -123 l314 -122 1 -66 c0 -44 6 -74 18 -92 l17 -26 -96 -74 -97 -75 -50 32
c-103 64 -228 30 -281 -76 -42 -85 -30 -164 35 -229 l39 -39 -35 -69 -34 -69
-35 10 c-79 24 -186 -23 -227 -102 -24 -44 -25 -130 -3 -176 22 -46 79 -92
131 -106 23 -7 44 -19 46 -27 4 -14 5 -14 6 0 1 11 14 19 37 24 73 13 129 69
155 153 16 56 -2 119 -53 176 l-38 45 31 63 31 63 90 0 91 -1 32 -64 33 -65
-33 -27 c-18 -15 -40 -43 -49 -62 -21 -44 -21 -128 0 -172 22 -46 79 -92 131
-106 23 -7 44 -19 46 -27 4 -14 5 -14 6 0 1 11 14 19 37 24 52 9 97 42 130 94
77 121 -5 283 -150 298 -28 3 -62 0 -76 -5 -23 -9 -27 -5 -62 60 l-38 68 39
39 c21 21 44 56 51 76 13 41 7 132 -10 149 -20 20 -9 35 82 106 91 72 91 73
117 56 86 -56 175 -61 248 -12 l42 28 94 -74 c93 -72 94 -73 81 -99 -39 -77
-25 -165 36 -228 l40 -41 -32 -65 -32 -65 -66 6 c-56 5 -71 3 -109 -18 -89
-48 -126 -129 -107 -233 10 -51 82 -121 140 -137 25 -7 47 -19 49 -27 4 -14 5
-14 6 0 1 11 14 19 37 24 99 18 177 128 159 224 -8 42 -37 93 -72 125 l-24 23
31 64 32 64 90 0 91 -1 32 -63 32 -64 -42 -43 c-43 -44 -55 -76 -55 -146 0
-80 63 -158 147 -180 23 -7 44 -19 46 -27 4 -14 5 -14 6 0 1 11 14 19 37 24
95 17 154 93 154 197 0 75 -28 128 -87 166 -40 27 -125 39 -163 24 -24 -9 -27
-6 -60 60 l-36 69 43 45 c93 100 64 248 -62 309 -68 34 -126 30 -196 -13 l-45
-29 -90 69 c-49 39 -91 74 -92 79 -2 5 2 17 10 26 8 10 13 42 13 87 0 61 -4
77 -28 112 -15 22 -44 50 -65 61 -89 51 -169 38 -243 -38 l-48 -49 -317 123
-317 124 -1 69 c-2 79 -25 125 -85 164 -47 31 -151 39 -196 15z m184 -28 c51
-34 96 -122 87 -170 -18 -96 -113 -174 -200 -165 -91 11 -166 93 -166 183 0
78 61 157 136 178 39 11 105 -1 143 -26z m-1043 -388 c70 -34 123 -124 108
-185 -32 -136 -174 -202 -280 -131 -87 59 -111 158 -58 243 53 86 145 115 230
73z m2042 0 c52 -26 98 -85 107 -140 10 -56 -30 -136 -87 -175 -33 -23 -51
-29 -97 -28 -99 0 -171 70 -179 174 -3 48 1 61 26 101 33 52 97 89 151 89 19
0 55 -10 79 -21z m-2521 -417 c113 -89 98 -243 -29 -306 -65 -32 -91 -33 -154
-1 -119 60 -144 195 -52 287 50 50 71 58 139 55 45 -3 64 -9 96 -35z m1020 2
c114 -92 98 -246 -32 -309 -62 -31 -102 -29 -165 6 -58 33 -85 83 -85 159 0
76 23 115 90 156 57 36 139 30 192 -12z m1016 3 c83 -63 104 -154 54 -240 -35
-60 -116 -102 -175 -92 -130 22 -201 161 -138 269 39 66 96 98 168 93 42 -2
65 -10 91 -30z m997 14 c47 -25 97 -91 105 -141 6 -33 2 -51 -20 -95 -49 -100
-162 -139 -249 -86 -92 57 -122 160 -72 245 50 86 155 120 236 77z m-3303
-507 c121 -70 121 -233 -1 -308 -61 -38 -117 -39 -179 -3 -144 85 -120 275 42
333 44 16 82 10 138 -22z m1530 0 c121 -70 121 -233 -1 -308 -59 -37 -115 -39
-174 -6 -149 84 -121 289 46 340 37 11 79 3 129 -26z m1020 0 c121 -70 121
-233 -1 -308 -59 -37 -115 -39 -174 -6 -149 84 -121 289 46 340 37 11 79 3
129 -26z m510 0 c142 -82 110 -289 -53 -333 -68 -18 -146 16 -191 84 -54 80
-26 199 58 249 69 41 115 41 186 0z m512 -2 c92 -56 116 -167 55 -254 -56 -80
-151 -103 -232 -58 -149 84 -121 289 46 340 38 12 80 3 131 -28z m-3068 6 c88
-49 122 -154 77 -238 -50 -93 -159 -129 -246 -80 -128 72 -131 241 -5 317 50
30 121 31 174 1z m521 -7 c118 -75 114 -236 -9 -308 -58 -34 -114 -35 -171 -3
-94 53 -127 171 -69 255 60 88 162 111 249 56z m1020 0 c118 -75 114 -236 -9
-308 -58 -34 -114 -35 -171 -3 -94 53 -127 171 -69 255 60 88 162 111 249 56z"/>
<path d="M1949 1986 c-21 -46 7 -95 46 -80 38 15 25 104 -15 104 -12 0 -25
-10 -31 -24z m41 -31 c0 -19 -4 -35 -10 -35 -5 0 -10 16 -10 35 0 19 5 35 10
35 6 0 10 -16 10 -35z"/>
<path d="M1920 1821 c0 -33 16 -49 33 -32 6 6 19 11 29 11 10 0 18 5 18 10 0
6 -6 10 -14 10 -8 0 -16 7 -20 15 -3 8 -15 15 -26 15 -15 0 -20 -7 -20 -29z
m27 -13 c-3 -7 -5 -2 -5 12 0 14 2 19 5 13 2 -7 2 -19 0 -25z"/>
<path d="M2000 1840 c0 -5 7 -7 16 -3 14 5 15 3 5 -15 -13 -24 -14 -42 -3 -42
4 0 12 16 18 35 10 33 10 35 -12 35 -13 0 -24 -4 -24 -10z"/>
<path d="M929 1586 c-21 -46 7 -95 46 -80 38 15 25 104 -15 104 -12 0 -25 -10
-31 -24z m41 -31 c0 -19 -4 -35 -10 -35 -5 0 -10 16 -10 35 0 19 5 35 10 35 6
0 10 -16 10 -35z"/>
<path d="M890 1421 c0 -37 16 -48 39 -27 23 21 41 20 56 -1 10 -14 16 -15 28
-5 20 17 10 62 -14 62 -23 0 -24 -8 -2 -34 10 -12 11 -15 3 -8 -8 6 -24 12
-36 12 -12 0 -24 7 -28 15 -3 8 -15 15 -26 15 -15 0 -20 -7 -20 -29z m27 -13
c-3 -7 -5 -2 -5 12 0 14 2 19 5 13 2 -7 2 -19 0 -25z"/>
<path d="M2969 1586 c-21 -46 7 -95 46 -80 38 15 25 104 -15 104 -12 0 -25
-10 -31 -24z m41 -31 c0 -19 -4 -35 -10 -35 -5 0 -10 16 -10 35 0 19 5 35 10
35 6 0 10 -16 10 -35z"/>
<path d="M2940 1430 c-6 -11 -8 -25 -5 -30 8 -13 45 -13 45 0 0 6 11 10 25 10
16 0 25 -6 25 -15 0 -27 15 -16 26 20 10 33 10 35 -12 35 -13 0 -24 -4 -24
-10 0 -5 7 -7 15 -4 10 4 13 2 10 -7 -3 -8 -20 -14 -40 -14 -27 0 -35 4 -35
18 0 23 -17 22 -30 -3z"/>
<path d="M419 1186 c-21 -46 7 -95 46 -80 38 15 25 104 -15 104 -12 0 -25 -10
-31 -24z m41 -31 c0 -19 -4 -35 -10 -35 -5 0 -10 16 -10 35 0 19 5 35 10 35 6
0 10 -16 10 -35z"/>
<path d="M380 1021 c0 -37 16 -48 38 -28 9 8 28 17 42 20 l25 4 -26 2 c-15 0
-29 8 -33 16 -3 8 -15 15 -26 15 -15 0 -20 -7 -20 -29z m27 -13 c-3 -7 -5 -2
-5 12 0 14 2 19 5 13 2 -7 2 -19 0 -25z"/>
<path d="M479 1041 c8 -5 12 -18 8 -30 -3 -13 0 -21 7 -21 8 0 11 11 8 30 -3
19 -10 30 -21 30 -13 0 -13 -2 -2 -9z"/>
<path d="M1439 1186 c-21 -46 7 -95 46 -80 38 15 25 104 -15 104 -12 0 -25
-10 -31 -24z m41 -31 c0 -19 -4 -35 -10 -35 -5 0 -10 16 -10 35 0 19 5 35 10
35 6 0 10 -16 10 -35z"/>
<path d="M1400 1034 c0 -14 3 -14 15 -4 20 17 19 1 -2 -22 -15 -17 -15 -18 4
-18 14 0 22 8 25 25 6 29 2 35 -24 35 -10 0 -18 -7 -18 -16z"/>
<path d="M1490 1043 c0 -3 8 -16 17 -27 10 -12 11 -15 3 -8 -8 6 -25 11 -39
11 -21 -1 -22 -2 -6 -6 11 -3 25 -13 31 -21 10 -13 15 -14 27 -4 20 17 10 62
-14 62 -11 0 -19 -3 -19 -7z"/>
<path d="M2459 1186 c-21 -46 7 -95 46 -80 38 15 25 104 -15 104 -12 0 -25
-10 -31 -24z m41 -31 c0 -19 -4 -35 -10 -35 -5 0 -10 16 -10 35 0 19 5 35 10
35 6 0 10 -16 10 -35z"/>
<path d="M2430 1030 c-6 -11 -8 -25 -5 -30 8 -13 45 -13 45 0 0 16 32 11 46
-7 12 -17 14 -17 29 -2 15 15 15 18 1 32 -12 11 -13 17 -3 20 7 3 5 6 -5 6
-10 1 -18 -5 -18 -13 0 -8 -13 -16 -30 -18 -24 -4 -30 -1 -30 14 0 24 -17 23
-30 -2z"/>
<path d="M3479 1186 c-21 -46 7 -95 46 -80 38 15 25 104 -15 104 -12 0 -25
-10 -31 -24z m41 -31 c0 -19 -4 -35 -10 -35 -5 0 -10 16 -10 35 0 19 5 35 10
35 6 0 10 -16 10 -35z"/>
<path d="M3447 1043 c-11 -10 -8 -51 4 -58 5 -4 18 0 28 9 22 20 61 21 61 1 0
-27 15 -16 26 20 10 33 10 35 -12 35 -13 0 -24 -4 -24 -10 0 -5 7 -7 15 -4 10
4 13 2 10 -8 -7 -19 -75 -11 -75 8 0 14 -22 19 -33 7z"/>
<path d="M159 686 c-21 -46 7 -95 46 -80 38 15 25 104 -15 104 -12 0 -25 -10
-31 -24z m41 -31 c0 -19 -4 -35 -10 -35 -5 0 -10 16 -10 35 0 19 5 35 10 35 6
0 10 -16 10 -35z"/>
<path d="M170 521 c0 -35 15 -48 36 -30 22 18 14 53 -13 57 -20 3 -23 -1 -23
-27z m27 -13 c-3 -7 -5 -2 -5 12 0 14 2 19 5 13 2 -7 2 -19 0 -25z"/>
<path d="M1699 686 c-21 -46 7 -95 46 -80 38 15 25 104 -15 104 -12 0 -25 -10
-31 -24z m41 -31 c0 -19 -4 -35 -10 -35 -5 0 -10 16 -10 35 0 19 5 35 10 35 6
0 10 -16 10 -35z"/>
<path d="M1700 543 c0 -3 8 -15 17 -25 16 -18 16 -18 0 -12 -18 7 -24 -11 -7
-21 18 -11 38 14 32 40 -3 16 -11 25 -23 25 -11 0 -19 -3 -19 -7z"/>
<path d="M2719 686 c-21 -46 7 -95 46 -80 38 15 25 104 -15 104 -12 0 -25 -10
-31 -24z m41 -31 c0 -19 -4 -35 -10 -35 -5 0 -10 16 -10 35 0 19 5 35 10 35 6
0 10 -16 10 -35z"/>
<path d="M2727 523 c-7 -36 8 -52 29 -31 14 14 14 17 0 31 -12 11 -13 17 -3
20 7 4 6 6 -4 6 -10 1 -19 -9 -22 -26z"/>
<path d="M3229 686 c-21 -46 7 -95 46 -80 38 15 25 104 -15 104 -12 0 -25 -10
-31 -24z m41 -31 c0 -19 -4 -35 -10 -35 -5 0 -10 16 -10 35 0 19 5 35 10 35 6
0 10 -16 10 -35z"/>
<path d="M3237 543 c-11 -10 -8 -51 4 -59 17 -10 39 19 33 44 -6 21 -24 29
-37 15z"/>
<path d="M3739 686 c-21 -46 7 -95 46 -80 38 15 25 104 -15 104 -12 0 -25 -10
-31 -24z m41 -31 c0 -19 -4 -35 -10 -35 -5 0 -10 16 -10 35 0 19 5 35 10 35 6
0 10 -16 10 -35z"/>
<path d="M3740 540 c0 -5 7 -7 16 -3 14 5 15 3 5 -15 -13 -24 -14 -42 -3 -42
4 0 12 16 18 35 10 33 10 35 -12 35 -13 0 -24 -4 -24 -10z"/>
<path d="M669 686 c-21 -46 7 -95 46 -80 38 15 25 104 -15 104 -12 0 -25 -10
-31 -24z m41 -31 c0 -19 -4 -35 -10 -35 -5 0 -10 16 -10 35 0 19 5 35 10 35 6
0 10 -16 10 -35z"/>
<path d="M689 541 c8 -5 12 -18 8 -30 -3 -13 0 -21 7 -21 8 0 11 11 8 30 -3
19 -10 30 -21 30 -13 0 -13 -2 -2 -9z"/>
<path d="M1189 686 c-21 -46 7 -95 46 -80 38 15 25 104 -15 104 -12 0 -25 -10
-31 -24z m41 -31 c0 -19 -4 -35 -10 -35 -5 0 -10 16 -10 35 0 19 5 35 10 35 6
0 10 -16 10 -35z"/>
<path d="M1190 534 c0 -14 3 -14 15 -4 20 17 19 1 -2 -22 -15 -17 -15 -18 4
-18 14 0 22 8 25 25 6 29 2 35 -24 35 -10 0 -18 -7 -18 -16z"/>
<path d="M2209 686 c-21 -46 7 -95 46 -80 38 15 25 104 -15 104 -12 0 -25 -10
-31 -24z m41 -31 c0 -19 -4 -35 -10 -35 -5 0 -10 16 -10 35 0 19 5 35 10 35 6
0 10 -16 10 -35z"/>
<path d="M2220 530 c-13 -25 -5 -40 22 -40 14 0 18 5 14 16 -3 9 -6 22 -6 30
0 21 -18 17 -30 -6z"/>
<path d="M192 330 c0 -14 2 -19 5 -12 2 6 2 18 0 25 -3 6 -5 1 -5 -13z"/>
<path d="M702 330 c0 -14 2 -19 5 -12 2 6 2 18 0 25 -3 6 -5 1 -5 -13z"/>
<path d="M1212 330 c0 -14 2 -19 5 -12 2 6 2 18 0 25 -3 6 -5 1 -5 -13z"/>
<path d="M1722 330 c0 -14 2 -19 5 -12 2 6 2 18 0 25 -3 6 -5 1 -5 -13z"/>
<path d="M2232 330 c0 -14 2 -19 5 -12 2 6 2 18 0 25 -3 6 -5 1 -5 -13z"/>
<path d="M2742 330 c0 -14 2 -19 5 -12 2 6 2 18 0 25 -3 6 -5 1 -5 -13z"/>
<path d="M3252 330 c0 -14 2 -19 5 -12 2 6 2 18 0 25 -3 6 -5 1 -5 -13z"/>
<path d="M3762 330 c0 -14 2 -19 5 -12 2 6 2 18 0 25 -3 6 -5 1 -5 -13z"/>
<path d="M192 270 c0 -14 2 -19 5 -12 2 6 2 18 0 25 -3 6 -5 1 -5 -13z"/>
<path d="M702 270 c0 -14 2 -19 5 -12 2 6 2 18 0 25 -3 6 -5 1 -5 -13z"/>
<path d="M1212 270 c0 -14 2 -19 5 -12 2 6 2 18 0 25 -3 6 -5 1 -5 -13z"/>
<path d="M1722 270 c0 -14 2 -19 5 -12 2 6 2 18 0 25 -3 6 -5 1 -5 -13z"/>
<path d="M2232 270 c0 -14 2 -19 5 -12 2 6 2 18 0 25 -3 6 -5 1 -5 -13z"/>
<path d="M2742 270 c0 -14 2 -19 5 -12 2 6 2 18 0 25 -3 6 -5 1 -5 -13z"/>
<path d="M3252 270 c0 -14 2 -19 5 -12 2 6 2 18 0 25 -3 6 -5 1 -5 -13z"/>
<path d="M3762 270 c0 -14 2 -19 5 -12 2 6 2 18 0 25 -3 6 -5 1 -5 -13z"/>
<path d="M191 214 c0 -11 3 -14 6 -6 3 7 2 16 -1 19 -3 4 -6 -2 -5 -13z"/>
<path d="M701 214 c0 -11 3 -14 6 -6 3 7 2 16 -1 19 -3 4 -6 -2 -5 -13z"/>
<path d="M1211 214 c0 -11 3 -14 6 -6 3 7 2 16 -1 19 -3 4 -6 -2 -5 -13z"/>
<path d="M1721 214 c0 -11 3 -14 6 -6 3 7 2 16 -1 19 -3 4 -6 -2 -5 -13z"/>
<path d="M2231 214 c0 -11 3 -14 6 -6 3 7 2 16 -1 19 -3 4 -6 -2 -5 -13z"/>
<path d="M2741 214 c0 -11 3 -14 6 -6 3 7 2 16 -1 19 -3 4 -6 -2 -5 -13z"/>
<path d="M3251 214 c0 -11 3 -14 6 -6 3 7 2 16 -1 19 -3 4 -6 -2 -5 -13z"/>
<path d="M3761 214 c0 -11 3 -14 6 -6 3 7 2 16 -1 19 -3 4 -6 -2 -5 -13z"/>
<path d="M177 134 c-12 -13 -8 -62 6 -67 23 -9 39 9 35 39 -3 27 -26 43 -41
28z m20 -51 c-3 -10 -5 -2 -5 17 0 19 2 27 5 18 2 -10 2 -26 0 -35z"/>
<path d="M687 134 c-12 -13 -8 -62 6 -67 23 -9 39 9 35 39 -3 27 -26 43 -41
28z m20 -51 c-3 -10 -5 -2 -5 17 0 19 2 27 5 18 2 -10 2 -26 0 -35z"/>
<path d="M1197 134 c-12 -13 -8 -62 6 -67 23 -9 39 9 35 39 -3 27 -26 43 -41
28z m20 -51 c-3 -10 -5 -2 -5 17 0 19 2 27 5 18 2 -10 2 -26 0 -35z"/>
<path d="M1707 134 c-12 -13 -8 -62 6 -67 23 -9 39 9 35 39 -3 27 -26 43 -41
28z m20 -51 c-3 -10 -5 -2 -5 17 0 19 2 27 5 18 2 -10 2 -26 0 -35z"/>
<path d="M2217 134 c-12 -13 -8 -62 6 -67 23 -9 39 9 35 39 -3 27 -26 43 -41
28z m20 -51 c-3 -10 -5 -2 -5 17 0 19 2 27 5 18 2 -10 2 -26 0 -35z"/>
<path d="M2727 134 c-12 -13 -8 -62 6 -67 23 -9 39 9 35 39 -3 27 -26 43 -41
28z m20 -51 c-3 -10 -5 -2 -5 17 0 19 2 27 5 18 2 -10 2 -26 0 -35z"/>
<path d="M3237 134 c-12 -13 -8 -62 6 -67 23 -9 39 9 35 39 -3 27 -26 43 -41
28z m20 -51 c-3 -10 -5 -2 -5 17 0 19 2 27 5 18 2 -10 2 -26 0 -35z"/>
<path d="M3747 134 c-12 -13 -8 -62 6 -67 23 -9 39 9 35 39 -3 27 -26 43 -41
28z m20 -51 c-3 -10 -5 -2 -5 17 0 19 2 27 5 18 2 -10 2 -26 0 -35z"/>
</g>
</svg>
